<?xml version="1.0" encoding="utf-8"?>

<!DOCTYPE svg PUBLIC "-//W3C//DTD SVG 1.1//EN" "http://www.w3.org/Graphics/SVG/1.1/DTD/svg11.dtd">
<svg version="1.1" id="Layer_1" xmlns="http://www.w3.org/2000/svg" xmlns:xlink="http://www.w3.org/1999/xlink" x="0px" y="0px"
	 viewBox="0 0 1651.851 1651.08" enable-background="new 0 0 1651.851 1651.08" xml:space="preserve">
<g>
	<circle cx="797.019" cy="794.465" r="0.101"/>
	<circle cx="833.543" cy="794.465" r="1.215"/>
	<circle cx="808.306" cy="829.201" r="1.215"/>
	<circle cx="767.472" cy="815.933" r="2.026"/>
	<circle cx="767.472" cy="772.998" r="3.14"/>
	<circle cx="808.306" cy="759.73" r="2.026"/>
	<circle cx="870.066" cy="794.465" r="3.241"/>
	<circle cx="856.115" cy="837.401" r="1.823"/>
	<circle cx="819.592" cy="863.937" r="3.241"/>
	<circle cx="774.447" cy="863.937" r="3.95"/>
	<circle cx="737.924" cy="837.401" r="4.355"/>
	<circle cx="723.973" cy="794.465" r="4.152"/>
	<circle cx="737.924" cy="751.53" r="4.76"/>
	<circle cx="774.447" cy="724.994" r="4.76"/>
	<circle cx="819.592" cy="724.994" r="4.152"/>
	<circle cx="856.115" cy="751.53" r="2.532"/>
	<circle cx="906.589" cy="794.465" r="5.266"/>
	<circle cx="897.116" cy="839.031" r="3.545"/>
	<circle cx="870.336" cy="875.891" r="4.76"/>
	<circle cx="830.878" cy="898.672" r="5.469"/>
	<circle cx="785.566" cy="903.435" r="5.773"/>
	<circle cx="742.235" cy="889.355" r="5.368"/>
	<circle cx="708.376" cy="858.869" r="6.38"/>
	<circle cx="689.844" cy="817.246" r="6.178"/>
	<circle cx="689.844" cy="771.685" r="6.684"/>
	<circle cx="708.376" cy="730.062" r="7.596"/>
	<circle cx="742.235" cy="699.576" r="7.596"/>
	<circle cx="785.566" cy="685.496" r="6.684"/>
	<circle cx="830.878" cy="690.259" r="6.38"/>
	<circle cx="870.336" cy="713.039" r="7.089"/>
	<circle cx="897.116" cy="749.9" r="3.95"/>
	<circle cx="943.112" cy="794.465" r="7.393"/>
	<circle cx="935.962" cy="839.611" r="7.495"/>
	<circle cx="915.211" cy="880.336" r="6.38"/>
	<circle cx="882.89" cy="912.657" r="6.38"/>
	<circle cx="842.164" cy="933.408" r="7.495"/>
	<circle cx="797.019" cy="940.558" r="7.393"/>
	<circle cx="751.874" cy="933.408" r="8.609"/>
	<circle cx="711.148" cy="912.657" r="8.305"/>
	<circle cx="678.828" cy="880.336" r="9.014"/>
	<circle cx="658.077" cy="839.611" r="8.406"/>
	<circle cx="650.927" cy="794.465" r="8.305"/>
	<circle cx="658.077" cy="749.32" r="9.419"/>
	<circle cx="678.828" cy="708.594" r="10.533"/>
	<circle cx="711.148" cy="676.274" r="10.533"/>
	<circle cx="751.874" cy="655.523" r="9.419"/>
	<circle cx="797.019" cy="648.373" r="8.305"/>
	<circle cx="842.164" cy="655.523" r="8.406"/>
	<circle cx="882.89" cy="676.274" r="9.014"/>
	<circle cx="915.211" cy="708.594" r="8.305"/>
	<circle cx="935.962" cy="749.32" r="8.609"/>
	<circle cx="979.635" cy="794.465" r="9.419"/>
	<circle cx="973.898" cy="839.88" r="9.52"/>
	<circle cx="957.047" cy="882.441" r="8.102"/>
	<circle cx="930.141" cy="919.474" r="7.697"/>
	<circle cx="894.87" cy="948.653" r="8.102"/>
	<circle cx="853.451" cy="968.143" r="7.495"/>
	<circle cx="808.486" cy="976.721" r="9.419"/>
	<circle cx="762.801" cy="973.846" r="9.723"/>
	<circle cx="719.265" cy="959.701" r="8.609"/>
	<circle cx="680.616" cy="935.173" r="9.824"/>
	<circle cx="649.28" cy="901.804" r="9.925"/>
	<circle cx="627.228" cy="861.691" r="10.938"/>
	<circle cx="615.844" cy="817.353" r="10.33"/>
	<circle cx="615.844" cy="771.578" r="10.634"/>
	<circle cx="627.228" cy="727.24" r="11.242"/>
	<circle cx="649.28" cy="687.127" r="10.533"/>
	<circle cx="680.616" cy="653.758" r="10.533"/>
	<circle cx="719.265" cy="629.23" r="11.242"/>
	<circle cx="762.801" cy="615.084" r="10.634"/>
	<circle cx="808.486" cy="612.21" r="10.33"/>
	<circle cx="853.451" cy="620.788" r="10.432"/>
	<circle cx="894.87" cy="640.278" r="9.014"/>
	<circle cx="930.141" cy="669.456" r="9.925"/>
	<circle cx="957.047" cy="706.49" r="9.824"/>
	<circle cx="973.898" cy="749.051" r="10.432"/>
	<circle cx="1016.158" cy="794.465" r="11.444"/>
	<circle cx="1011.37" cy="840.027" r="11.546"/>
	<circle cx="997.213" cy="883.597" r="10.026"/>
	<circle cx="974.306" cy="923.272" r="10.938"/>
	<circle cx="943.652" cy="957.317" r="10.533"/>
	<circle cx="906.589" cy="984.245" r="10.938"/>
	<circle cx="864.737" cy="1002.879" r="10.026"/>
	<circle cx="819.926" cy="1012.404" r="11.444"/>
	<circle cx="774.113" cy="1012.404" r="11.748"/>
	<circle cx="729.302" cy="1002.879" r="10.432"/>
	<circle cx="687.45" cy="984.245" r="11.444"/>
	<circle cx="650.387" cy="957.317" r="11.242"/>
	<circle cx="619.732" cy="923.272" r="11.748"/>
	<circle cx="596.826" cy="883.597" r="12.862"/>
	<circle cx="582.669" cy="840.027" r="12.457"/>
	<circle cx="577.881" cy="794.465" r="12.356"/>
	<circle cx="582.669" cy="748.904" r="13.166"/>
	<circle cx="596.826" cy="705.334" r="13.976"/>
	<circle cx="619.732" cy="665.659" r="13.369"/>
	<circle cx="650.387" cy="631.614" r="13.369"/>
	<circle cx="687.45" cy="604.686" r="12.153"/>
	<circle cx="729.302" cy="586.052" r="13.166"/>
	<circle cx="774.113" cy="576.527" r="12.66"/>
	<circle cx="819.926" cy="576.527" r="12.356"/>
	<circle cx="864.737" cy="586.052" r="12.862"/>
	<circle cx="906.589" cy="604.686" r="11.748"/>
	<circle cx="943.652" cy="631.614" r="12.862"/>
	<circle cx="974.306" cy="665.659" r="12.66"/>
	<circle cx="997.213" cy="705.334" r="11.444"/>
	<circle cx="1011.37" cy="748.904" r="12.356"/>
	<circle cx="1052.681" cy="794.465" r="13.571"/>
	<circle cx="1048.573" cy="840.116" r="13.672"/>
	<circle cx="1036.379" cy="884.299" r="12.052"/>
	<circle cx="1016.492" cy="925.594" r="12.761"/>
	<circle cx="989.551" cy="962.675" r="12.052"/>
	<circle cx="956.422" cy="994.35" r="12.052"/>
	<circle cx="918.17" cy="1019.6" r="12.761"/>
	<circle cx="876.023" cy="1037.614" r="12.052"/>
	<circle cx="831.338" cy="1047.814" r="13.672"/>
	<circle cx="785.549" cy="1049.87" r="13.774"/>
	<circle cx="740.129" cy="1043.717" r="14.28"/>
	<circle cx="696.538" cy="1029.554" r="13.166"/>
	<circle cx="656.176" cy="1007.834" r="14.28"/>
	<circle cx="620.341" cy="979.257" r="14.179"/>
	<circle cx="590.185" cy="944.74" r="14.584"/>
	<circle cx="566.676" cy="905.393" r="15.495"/>
	<circle cx="550.571" cy="862.481" r="14.888"/>
	<circle cx="542.387" cy="817.383" r="14.483"/>
	<circle cx="542.387" cy="771.548" r="14.685"/>
	<circle cx="550.571" cy="726.45" r="15.192"/>
	<circle cx="566.676" cy="683.538" r="15.901"/>
	<circle cx="590.185" cy="644.191" r="15.09"/>
	<circle cx="620.341" cy="609.674" r="14.787"/>
	<circle cx="656.176" cy="581.097" r="15.09"/>
	<circle cx="696.538" cy="559.377" r="15.901"/>
	<circle cx="740.129" cy="545.214" r="15.192"/>
	<circle cx="785.549" cy="539.061" r="14.685"/>
	<circle cx="831.338" cy="541.117" r="14.584"/>
	<circle cx="876.023" cy="551.316" r="14.888"/>
	<circle cx="918.17" cy="569.331" r="13.571"/>
	<circle cx="956.422" cy="594.581" r="14.584"/>
	<circle cx="989.551" cy="626.256" r="14.179"/>
	<circle cx="1016.492" cy="663.337" r="14.28"/>
	<circle cx="1036.379" cy="704.632" r="13.166"/>
	<circle cx="1048.573" cy="748.815" r="14.28"/>
	<circle cx="1089.204" cy="794.465" r="15.597"/>
	<circle cx="1085.607" cy="840.173" r="15.698"/>
	<circle cx="1074.904" cy="884.756" r="13.976"/>
	<circle cx="1057.358" cy="927.115" r="14.685"/>
	<circle cx="1033.402" cy="966.208" r="13.774"/>
	<circle cx="1003.625" cy="1001.072" r="13.47"/>
	<circle cx="968.761" cy="1030.848" r="13.774"/>
	<circle cx="929.669" cy="1054.804" r="14.685"/>
	<circle cx="887.31" cy="1072.35" r="13.976"/>
	<circle cx="842.727" cy="1083.053" r="15.698"/>
	<circle cx="797.019" cy="1086.651" r="15.597"/>
	<circle cx="751.312" cy="1083.053" r="16.306"/>
	<circle cx="706.729" cy="1072.35" r="15.09"/>
	<circle cx="664.37" cy="1054.804" r="16.002"/>
	<circle cx="625.277" cy="1030.848" r="15.597"/>
	<circle cx="590.413" cy="1001.072" r="15.799"/>
	<circle cx="560.637" cy="966.208" r="16.407"/>
	<circle cx="536.681" cy="927.115" r="15.495"/>
	<circle cx="519.135" cy="884.756" r="16.913"/>
	<circle cx="508.432" cy="840.173" r="16.61"/>
	<circle cx="504.834" cy="794.465" r="16.61"/>
	<circle cx="508.432" cy="748.758" r="17.217"/>
	<circle cx="519.135" cy="704.175" r="17.825"/>
	<circle cx="536.681" cy="661.816" r="16.812"/>
	<circle cx="560.637" cy="622.723" r="18.027"/>
	<circle cx="590.413" cy="587.859" r="17.724"/>
	<circle cx="625.277" cy="558.083" r="18.027"/>
	<circle cx="664.37" cy="534.127" r="16.812"/>
	<circle cx="706.729" cy="516.581" r="17.825"/>
	<circle cx="751.312" cy="505.878" r="17.217"/>
	<circle cx="797.019" cy="502.28" r="16.61"/>
	<circle cx="842.727" cy="505.878" r="16.61"/>
	<circle cx="887.31" cy="516.581" r="16.913"/>
	<circle cx="929.669" cy="534.127" r="15.495"/>
	<circle cx="968.761" cy="558.083" r="16.407"/>
	<circle cx="1003.625" cy="587.859" r="15.799"/>
	<circle cx="1033.402" cy="622.723" r="15.597"/>
	<circle cx="1057.358" cy="661.816" r="16.002"/>
	<circle cx="1074.904" cy="704.175" r="15.09"/>
	<circle cx="1085.607" cy="748.758" r="16.306"/>
	<circle cx="1125.728" cy="794.465" r="17.724"/>
	<circle cx="1122.529" cy="840.213" r="17.825"/>
	<circle cx="1112.994" cy="885.07" r="16.002"/>
	<circle cx="1097.309" cy="928.163" r="16.61"/>
	<circle cx="1075.78" cy="968.654" r="15.597"/>
	<circle cx="1048.824" cy="1005.755" r="18.027"/>
	<circle cx="1016.968" cy="1038.743" r="16.407"/>
	<circle cx="980.831" cy="1066.977" r="16.711"/>
	<circle cx="941.116" cy="1089.906" r="17.42"/>
	<circle cx="898.596" cy="1107.086" r="16.61"/>
	<circle cx="854.099" cy="1118.18" r="17.825"/>
	<circle cx="808.491" cy="1122.973" r="17.724"/>
	<circle cx="762.66" cy="1121.373" r="17.926"/>
	<circle cx="717.498" cy="1113.41" r="16.306"/>
	<circle cx="673.883" cy="1099.238" r="17.825"/>
	<circle cx="632.665" cy="1079.135" r="18.939"/>
	<circle cx="594.646" cy="1053.491" r="18.635"/>
	<circle cx="560.567" cy="1022.805" r="18.736"/>
	<circle cx="531.089" cy="987.675" r="19.243"/>
	<circle cx="506.787" cy="948.785" r="18.23"/>
	<circle cx="488.135" cy="906.89" r="19.547"/>
	<circle cx="475.494" cy="862.808" r="19.04"/>
	<circle cx="469.112" cy="817.395" r="18.635"/>
	<circle cx="469.112" cy="771.536" r="18.838"/>
	<circle cx="475.494" cy="726.123" r="19.141"/>
	<circle cx="488.135" cy="682.041" r="19.749"/>
	<circle cx="506.787" cy="640.146" r="19.749"/>
	<circle cx="531.089" cy="601.256" r="20.863"/>
	<circle cx="560.567" cy="566.126" r="20.661"/>
	<circle cx="594.646" cy="535.44" r="19.243"/>
	<circle cx="632.665" cy="509.796" r="19.749"/>
	<circle cx="673.883" cy="489.693" r="20.559"/>
	<circle cx="717.498" cy="475.521" r="19.141"/>
	<circle cx="762.66" cy="467.558" r="18.838"/>
	<circle cx="808.491" cy="465.957" r="18.635"/>
	<circle cx="854.099" cy="470.751" r="18.736"/>
	<circle cx="898.596" cy="481.845" r="19.547"/>
	<circle cx="941.116" cy="499.024" r="18.23"/>
	<circle cx="980.831" cy="521.954" r="19.243"/>
	<circle cx="1016.968" cy="550.188" r="18.736"/>
	<circle cx="1048.824" cy="583.176" r="18.635"/>
	<circle cx="1075.78" cy="620.277" r="17.217"/>
	<circle cx="1097.309" cy="660.768" r="17.825"/>
	<circle cx="1112.994" cy="703.861" r="16.913"/>
	<circle cx="1122.529" cy="748.718" r="18.331"/>
	<circle cx="1162.251" cy="794.465" r="19.85"/>
	<circle cx="1159.371" cy="840.241" r="19.85"/>
	<circle cx="1150.776" cy="885.295" r="18.129"/>
	<circle cx="1136.603" cy="928.916" r="18.635"/>
	<circle cx="1117.074" cy="970.417" r="18.433"/>
	<circle cx="1092.498" cy="1009.143" r="19.648"/>
	<circle cx="1063.262" cy="1044.484" r="19.344"/>
	<circle cx="1029.827" cy="1075.881" r="18.027"/>
	<circle cx="992.72" cy="1102.84" r="18.433"/>
	<circle cx="952.527" cy="1124.937" r="19.344"/>
	<circle cx="909.882" cy="1141.821" r="18.635"/>
	<circle cx="865.457" cy="1153.228" r="20.154"/>
	<circle cx="819.953" cy="1158.976" r="19.85"/>
	<circle cx="774.086" cy="1158.976" r="19.952"/>
	<circle cx="728.582" cy="1153.228" r="20.357"/>
	<circle cx="684.157" cy="1141.821" r="18.939"/>
	<circle cx="641.511" cy="1124.937" r="20.661"/>
	<circle cx="601.319" cy="1102.84" r="20.154"/>
	<circle cx="564.212" cy="1075.881" r="20.053"/>
	<circle cx="530.777" cy="1044.484" r="21.673"/>
	<circle cx="501.541" cy="1009.143" r="20.357"/>
	<circle cx="476.965" cy="970.417" r="21.066"/>
	<circle cx="457.436" cy="928.916" r="21.471"/>
	<circle cx="443.262" cy="885.295" r="21.066"/>
	<circle cx="434.668" cy="840.241" r="20.762"/>
	<circle cx="431.788" cy="794.465" r="20.762"/>
	<circle cx="434.668" cy="748.69" r="21.268"/>
	<circle cx="443.262" cy="703.636" r="21.775"/>
	<circle cx="457.436" cy="660.015" r="22.484"/>
	<circle cx="476.965" cy="618.514" r="21.471"/>
	<circle cx="501.541" cy="579.788" r="20.863"/>
	<circle cx="530.777" cy="544.447" r="22.281"/>
	<circle cx="564.212" cy="513.05" r="22.281"/>
	<circle cx="601.319" cy="486.09" r="22.585"/>
	<circle cx="641.511" cy="463.994" r="21.471"/>
	<circle cx="684.157" cy="447.11" r="21.775"/>
	<circle cx="728.582" cy="435.703" r="21.268"/>
	<circle cx="774.086" cy="429.955" r="20.863"/>
	<circle cx="819.953" cy="429.955" r="20.762"/>
	<circle cx="865.457" cy="435.703" r="21.066"/>
	<circle cx="909.882" cy="447.11" r="21.471"/>
	<circle cx="952.527" cy="463.994" r="20.154"/>
	<circle cx="992.72" cy="486.09" r="21.066"/>
	<circle cx="1029.827" cy="513.05" r="20.357"/>
	<circle cx="1063.262" cy="544.447" r="20.053"/>
	<circle cx="1092.498" cy="579.788" r="20.154"/>
	<circle cx="1117.074" cy="618.514" r="18.939"/>
	<circle cx="1136.603" cy="660.015" r="19.749"/>
	<circle cx="1150.776" cy="703.636" r="18.939"/>
	<circle cx="1159.371" cy="748.69" r="20.357"/>
	<circle cx="1198.774" cy="794.465" r="21.876"/>
	<circle cx="1196.155" cy="840.262" r="21.977"/>
	<circle cx="1188.333" cy="885.462" r="20.154"/>
	<circle cx="1175.41" cy="929.475" r="20.559"/>
	<circle cx="1157.553" cy="971.728" r="22.078"/>
	<circle cx="1134.997" cy="1011.67" r="21.37"/>
	<circle cx="1108.034" cy="1048.781" r="20.964"/>
	<circle cx="1077.017" cy="1082.576" r="20.964"/>
	<circle cx="1042.35" cy="1112.616" r="19.648"/>
	<circle cx="1004.484" cy="1138.508" r="20.255"/>
	<circle cx="963.914" cy="1159.914" r="21.268"/>
	<circle cx="921.168" cy="1176.557" r="20.559"/>
	<circle cx="876.804" cy="1188.218" r="22.18"/>
	<circle cx="831.4" cy="1194.746" r="21.977"/>
	<circle cx="785.547" cy="1196.056" r="22.078"/>
	<circle cx="739.844" cy="1192.131" r="22.382"/>
	<circle cx="694.886" cy="1183.021" r="20.863"/>
	<circle cx="651.26" cy="1168.846" r="21.673"/>
	<circle cx="609.534" cy="1149.79" r="20.661"/>
	<circle cx="570.252" cy="1126.103" r="21.876"/>
	<circle cx="533.926" cy="1098.091" r="21.572"/>
	<circle cx="501.03" cy="1066.122" r="21.673"/>
	<circle cx="471.993" cy="1030.611" r="22.078"/>
	<circle cx="447.193" cy="992.021" r="22.281"/>
	<circle cx="426.954" cy="950.856" r="22.18"/>
	<circle cx="411.539" cy="907.653" r="21.673"/>
	<circle cx="401.149" cy="862.974" r="22.078"/>
	<circle cx="395.92" cy="817.401" r="22.382"/>
	<circle cx="395.92" cy="771.53" r="22.18"/>
	<circle cx="401.149" cy="725.957" r="21.876"/>
	<circle cx="411.539" cy="681.278" r="21.471"/>
	<circle cx="426.954" cy="638.074" r="21.876"/>
	<circle cx="447.193" cy="596.91" r="20.863"/>
	<circle cx="471.993" cy="558.32" r="21.37"/>
	<circle cx="501.03" cy="522.809" r="21.572"/>
	<circle cx="533.926" cy="490.84" r="21.37"/>
	<circle cx="570.252" cy="462.828" r="22.585"/>
	<circle cx="609.534" cy="439.141" r="21.876"/>
	<circle cx="651.26" cy="420.085" r="20.762"/>
	<circle cx="694.886" cy="405.91" r="21.471"/>
	<circle cx="739.844" cy="396.8" r="21.876"/>
	<circle cx="785.547" cy="392.875" r="22.18"/>
	<circle cx="831.4" cy="394.185" r="22.281"/>
	<circle cx="876.804" cy="400.713" r="22.078"/>
	<circle cx="921.168" cy="412.374" r="21.673"/>
	<circle cx="963.914" cy="429.017" r="22.18"/>
	<circle cx="1004.484" cy="450.423" r="22.281"/>
	<circle cx="1042.35" cy="476.315" r="22.078"/>
	<circle cx="1077.017" cy="506.355" r="21.673"/>
	<circle cx="1108.034" cy="540.15" r="21.572"/>
	<circle cx="1134.997" cy="577.261" r="21.876"/>
	<circle cx="1157.553" cy="617.203" r="22.484"/>
	<circle cx="1175.41" cy="659.456" r="21.673"/>
	<circle cx="1188.333" cy="703.469" r="20.863"/>
	<circle cx="1196.155" cy="748.669" r="22.382"/>
	<circle cx="1235.297" cy="794.465" r="21.167"/>
	<circle cx="1232.896" cy="840.278" r="21.167"/>
	<circle cx="1225.72" cy="885.589" r="22.18"/>
	<circle cx="1213.846" cy="929.901" r="22.585"/>
	<circle cx="1197.406" cy="972.729" r="21.167"/>
	<circle cx="1176.579" cy="1013.604" r="22.078"/>
	<circle cx="1151.594" cy="1052.079" r="22.585"/>
	<circle cx="1122.723" cy="1087.73" r="21.37"/>
	<circle cx="1090.284" cy="1120.169" r="21.37"/>
	<circle cx="1054.633" cy="1149.04" r="22.585"/>
	<circle cx="1016.158" cy="1174.025" r="22.078"/>
	<circle cx="975.283" cy="1194.852" r="21.167"/>
	<circle cx="932.455" cy="1211.292" r="22.585"/>
	<circle cx="888.142" cy="1223.166" r="22.18"/>
	<circle cx="842.832" cy="1230.342" r="21.167"/>
	<circle cx="797.019" cy="1232.743" r="21.167"/>
	<circle cx="751.207" cy="1230.342" r="20.762"/>
	<circle cx="705.896" cy="1223.166" r="22.281"/>
	<circle cx="661.584" cy="1211.292" r="21.673"/>
	<circle cx="618.756" cy="1194.852" r="20.863"/>
	<circle cx="577.881" cy="1174.025" r="21.572"/>
	<circle cx="539.406" cy="1149.04" r="22.078"/>
	<circle cx="503.754" cy="1120.169" r="20.762"/>
	<circle cx="471.316" cy="1087.73" r="20.661"/>
	<circle cx="442.445" cy="1052.079" r="20.255"/>
	<circle cx="417.46" cy="1013.604" r="19.547"/>
	<circle cx="396.633" cy="972.729" r="20.357"/>
	<circle cx="380.193" cy="929.901" r="19.648"/>
	<circle cx="368.319" cy="885.589" r="20.053"/>
	<circle cx="361.143" cy="840.278" r="20.255"/>
	<circle cx="358.742" cy="794.465" r="20.357"/>
	<circle cx="361.143" cy="748.653" r="19.952"/>
	<circle cx="368.319" cy="703.342" r="19.445"/>
	<circle cx="380.193" cy="659.03" r="18.838"/>
	<circle cx="396.633" cy="616.202" r="19.952"/>
	<circle cx="417.46" cy="575.327" r="19.04"/>
	<circle cx="442.445" cy="536.852" r="19.749"/>
	<circle cx="471.316" cy="501.2" r="20.053"/>
	<circle cx="503.754" cy="468.762" r="20.053"/>
	<circle cx="539.406" cy="439.891" r="19.749"/>
	<circle cx="577.881" cy="414.906" r="19.04"/>
	<circle cx="618.756" cy="394.079" r="19.952"/>
	<circle cx="661.584" cy="377.639" r="18.838"/>
	<circle cx="705.896" cy="365.765" r="19.445"/>
	<circle cx="751.207" cy="358.589" r="19.952"/>
	<circle cx="797.019" cy="356.188" r="20.357"/>
	<circle cx="842.832" cy="358.589" r="20.255"/>
	<circle cx="888.142" cy="365.765" r="20.053"/>
	<circle cx="932.455" cy="377.639" r="19.648"/>
	<circle cx="975.283" cy="394.079" r="20.357"/>
	<circle cx="1016.158" cy="414.906" r="19.547"/>
	<circle cx="1054.633" cy="439.891" r="20.255"/>
	<circle cx="1090.284" cy="468.762" r="20.661"/>
	<circle cx="1122.723" cy="501.2" r="20.762"/>
	<circle cx="1151.594" cy="536.852" r="22.078"/>
	<circle cx="1176.579" cy="575.327" r="21.572"/>
	<circle cx="1197.406" cy="616.202" r="20.863"/>
	<circle cx="1213.846" cy="659.03" r="21.673"/>
	<circle cx="1225.72" cy="703.342" r="22.281"/>
	<circle cx="1232.896" cy="748.653" r="20.762"/>
	<circle cx="1271.82" cy="794.465" r="19.141"/>
	<circle cx="1269.604" cy="840.29" r="19.141"/>
	<circle cx="1262.975" cy="885.687" r="20.964"/>
	<circle cx="1251.995" cy="930.233" r="20.559"/>
	<circle cx="1236.768" cy="973.51" r="19.344"/>
	<circle cx="1217.435" cy="1015.116" r="20.357"/>
	<circle cx="1194.176" cy="1054.662" r="19.243"/>
	<circle cx="1167.209" cy="1091.779" r="19.749"/>
	<circle cx="1136.786" cy="1126.119" r="19.952"/>
	<circle cx="1103.191" cy="1157.363" r="19.749"/>
	<circle cx="1066.737" cy="1185.219" r="20.964"/>
	<circle cx="1027.765" cy="1209.426" r="20.357"/>
	<circle cx="986.638" cy="1229.759" r="19.344"/>
	<circle cx="943.741" cy="1246.028" r="20.053"/>
	<circle cx="899.474" cy="1258.08" r="20.559"/>
	<circle cx="854.25" cy="1265.804" r="19.141"/>
	<circle cx="808.492" cy="1269.128" r="19.141"/>
	<circle cx="762.627" cy="1268.019" r="19.04"/>
	<circle cx="717.083" cy="1262.489" r="18.838"/>
	<circle cx="672.286" cy="1252.589" r="19.749"/>
	<circle cx="628.653" cy="1238.412" r="18.939"/>
	<circle cx="586.592" cy="1220.09" r="19.85"/>
	<circle cx="546.495" cy="1197.793" r="18.736"/>
	<circle cx="508.738" cy="1171.732" r="19.141"/>
	<circle cx="473.673" cy="1142.147" r="19.243"/>
	<circle cx="441.626" cy="1109.317" r="19.04"/>
	<circle cx="412.898" cy="1073.546" r="18.534"/>
	<circle cx="387.756" cy="1035.17" r="19.547"/>
	<circle cx="366.435" cy="994.547" r="18.433"/>
	<circle cx="349.134" cy="952.056" r="17.217"/>
	<circle cx="336.016" cy="908.093" r="17.724"/>
	<circle cx="327.201" cy="863.069" r="18.027"/>
	<circle cx="322.773" cy="817.405" r="18.23"/>
	<circle cx="322.773" cy="771.526" r="18.129"/>
	<circle cx="327.201" cy="725.862" r="17.926"/>
	<circle cx="336.016" cy="680.838" r="17.521"/>
	<circle cx="349.134" cy="636.875" r="16.204"/>
	<circle cx="366.435" cy="594.384" r="17.318"/>
	<circle cx="387.756" cy="553.761" r="18.027"/>
	<circle cx="412.898" cy="515.385" r="16.812"/>
	<circle cx="441.626" cy="479.614" r="17.116"/>
	<circle cx="473.673" cy="446.784" r="17.116"/>
	<circle cx="508.738" cy="417.199" r="16.812"/>
	<circle cx="546.495" cy="391.137" r="18.027"/>
	<circle cx="586.592" cy="368.841" r="17.318"/>
	<circle cx="628.653" cy="350.519" r="18.129"/>
	<circle cx="672.286" cy="336.342" r="16.913"/>
	<circle cx="717.083" cy="326.442" r="17.926"/>
	<circle cx="762.627" cy="320.912" r="18.129"/>
	<circle cx="808.492" cy="319.803" r="18.23"/>
	<circle cx="854.25" cy="323.127" r="18.23"/>
	<circle cx="899.474" cy="330.85" r="17.724"/>
	<circle cx="943.741" cy="342.903" r="17.217"/>
	<circle cx="986.638" cy="359.172" r="18.433"/>
	<circle cx="1027.765" cy="379.505" r="17.622"/>
	<circle cx="1066.737" cy="403.712" r="18.534"/>
	<circle cx="1103.191" cy="431.568" r="19.04"/>
	<circle cx="1136.786" cy="462.812" r="19.243"/>
	<circle cx="1167.209" cy="497.152" r="19.141"/>
	<circle cx="1194.176" cy="534.269" r="18.736"/>
	<circle cx="1217.435" cy="573.815" r="19.85"/>
	<circle cx="1236.768" cy="615.421" r="18.939"/>
	<circle cx="1251.995" cy="658.698" r="19.749"/>
	<circle cx="1262.975" cy="703.244" r="20.357"/>
	<circle cx="1269.604" cy="748.641" r="18.838"/>
	<circle cx="1308.343" cy="794.465" r="17.116"/>
	<circle cx="1306.285" cy="840.3" r="17.116"/>
	<circle cx="1300.126" cy="885.766" r="18.939"/>
	<circle cx="1289.917" cy="930.496" r="18.534"/>
	<circle cx="1275.739" cy="974.132" r="17.42"/>
	<circle cx="1257.706" cy="1016.321" r="18.534"/>
	<circle cx="1235.965" cy="1056.723" r="17.521"/>
	<circle cx="1210.689" cy="1095.014" r="18.129"/>
	<circle cx="1182.083" cy="1130.885" r="18.433"/>
	<circle cx="1150.376" cy="1164.048" r="18.433"/>
	<circle cx="1115.825" cy="1194.235" r="18.129"/>
	<circle cx="1078.706" cy="1221.203" r="19.243"/>
	<circle cx="1039.32" cy="1244.735" r="18.534"/>
	<circle cx="997.982" cy="1264.642" r="17.42"/>
	<circle cx="955.027" cy="1280.763" r="18.027"/>
	<circle cx="910.8" cy="1292.969" r="18.534"/>
	<circle cx="865.656" cy="1301.162" r="16.913"/>
	<circle cx="819.96" cy="1305.275" r="17.116"/>
	<circle cx="774.079" cy="1305.275" r="17.015"/>
	<circle cx="728.383" cy="1301.162" r="16.812"/>
	<circle cx="683.239" cy="1292.969" r="18.331"/>
	<circle cx="639.012" cy="1280.763" r="17.116"/>
	<circle cx="596.056" cy="1264.642" r="16.204"/>
	<circle cx="554.719" cy="1244.735" r="17.015"/>
	<circle cx="515.333" cy="1221.203" r="17.622"/>
	<circle cx="478.214" cy="1194.235" r="16.306"/>
	<circle cx="443.663" cy="1164.048" r="16.407"/>
	<circle cx="411.956" cy="1130.885" r="16.204"/>
	<circle cx="383.35" cy="1095.014" r="15.698"/>
	<circle cx="358.074" cy="1056.723" r="16.711"/>
	<circle cx="336.333" cy="1016.321" r="15.799"/>
	<circle cx="318.3" cy="974.132" r="16.61"/>
	<circle cx="304.122" cy="930.496" r="15.698"/>
	<circle cx="293.913" cy="885.766" r="16.002"/>
	<circle cx="287.754" cy="840.3" r="16.204"/>
	<circle cx="285.696" cy="794.465" r="16.204"/>
	<circle cx="287.754" cy="748.631" r="15.901"/>
	<circle cx="293.913" cy="703.165" r="15.495"/>
	<circle cx="304.122" cy="658.434" r="14.989"/>
	<circle cx="318.3" cy="614.799" r="16.204"/>
	<circle cx="336.333" cy="572.61" r="15.394"/>
	<circle cx="358.074" cy="532.208" r="16.306"/>
	<circle cx="383.35" cy="493.917" r="13.976"/>
	<circle cx="411.956" cy="458.046" r="15.597"/>
	<circle cx="443.663" cy="424.883" r="15.799"/>
	<circle cx="478.214" cy="394.696" r="15.597"/>
	<circle cx="515.333" cy="367.728" r="15.192"/>
	<circle cx="554.719" cy="344.196" r="14.483"/>
	<circle cx="596.056" cy="324.289" r="15.394"/>
	<circle cx="639.012" cy="308.168" r="14.381"/>
	<circle cx="683.239" cy="295.962" r="15.495"/>
	<circle cx="728.383" cy="287.769" r="15.901"/>
	<circle cx="774.079" cy="283.656" r="16.103"/>
	<circle cx="819.96" cy="283.656" r="16.204"/>
	<circle cx="865.656" cy="287.769" r="16.002"/>
	<circle cx="910.8" cy="295.962" r="15.698"/>
	<circle cx="955.027" cy="308.168" r="15.192"/>
	<circle cx="997.982" cy="324.289" r="16.61"/>
	<circle cx="1039.32" cy="344.196" r="15.799"/>
	<circle cx="1078.706" cy="367.728" r="16.711"/>
	<circle cx="1115.825" cy="394.696" r="17.42"/>
	<circle cx="1150.376" cy="424.883" r="17.724"/>
	<circle cx="1182.083" cy="458.046" r="17.825"/>
	<circle cx="1210.689" cy="493.917" r="16.306"/>
	<circle cx="1235.965" cy="532.208" r="17.015"/>
	<circle cx="1257.706" cy="572.61" r="18.027"/>
	<circle cx="1275.739" cy="614.799" r="17.116"/>
	<circle cx="1289.917" cy="658.434" r="17.825"/>
	<circle cx="1300.126" cy="703.165" r="18.331"/>
	<circle cx="1306.285" cy="748.631" r="16.812"/>
	<circle cx="1344.866" cy="794.465" r="15.09"/>
	<circle cx="1342.945" cy="840.308" r="15.09"/>
	<circle cx="1337.194" cy="885.829" r="14.888"/>
	<circle cx="1327.655" cy="930.709" r="16.61"/>
	<circle cx="1314.393" cy="974.634" r="15.495"/>
	<circle cx="1297.503" cy="1017.295" r="16.61"/>
	<circle cx="1277.101" cy="1058.393" r="15.698"/>
	<circle cx="1253.333" cy="1097.639" r="16.407"/>
	<circle cx="1226.364" cy="1134.759" r="16.913"/>
	<circle cx="1196.383" cy="1169.493" r="15.597"/>
	<circle cx="1163.601" cy="1201.595" r="15.597"/>
	<circle cx="1128.247" cy="1230.842" r="15.293"/>
	<circle cx="1090.571" cy="1257.028" r="16.407"/>
	<circle cx="1050.835" cy="1279.969" r="15.698"/>
	<circle cx="1009.319" cy="1299.505" r="14.787"/>
	<circle cx="966.313" cy="1315.499" r="16.103"/>
	<circle cx="922.121" cy="1327.838" r="16.61"/>
	<circle cx="877.051" cy="1336.435" r="14.888"/>
	<circle cx="831.419" cy="1341.231" r="15.09"/>
	<circle cx="785.546" cy="1342.192" r="14.989"/>
	<circle cx="739.754" cy="1339.311" r="14.787"/>
	<circle cx="694.363" cy="1332.609" r="16.407"/>
	<circle cx="649.693" cy="1322.131" r="15.901"/>
	<circle cx="606.055" cy="1307.953" r="14.381"/>
	<circle cx="563.758" cy="1290.172" r="15.293"/>
	<circle cx="523.096" cy="1268.915" r="14.28"/>
	<circle cx="484.356" cy="1244.33" r="14.685"/>
	<circle cx="447.809" cy="1216.589" r="14.989"/>
	<circle cx="413.711" cy="1185.887" r="14.888"/>
	<circle cx="382.302" cy="1152.44" r="13.267"/>
	<circle cx="353.802" cy="1116.482" r="14.584"/>
	<circle cx="328.411" cy="1078.265" r="14.888"/>
	<circle cx="306.306" cy="1038.057" r="13.976"/>
	<circle cx="287.644" cy="996.141" r="14.685"/>
	<circle cx="272.555" cy="952.811" r="13.267"/>
	<circle cx="261.144" cy="908.369" r="13.672"/>
	<circle cx="253.492" cy="863.129" r="13.976"/>
	<circle cx="249.653" cy="817.407" r="14.179"/>
	<circle cx="249.653" cy="771.524" r="14.078"/>
	<circle cx="253.492" cy="725.802" r="13.875"/>
	<circle cx="261.144" cy="680.562" r="13.47"/>
	<circle cx="272.555" cy="636.12" r="12.457"/>
	<circle cx="287.644" cy="592.789" r="13.571"/>
	<circle cx="306.306" cy="550.873" r="12.66"/>
	<circle cx="328.411" cy="510.666" r="13.47"/>
	<circle cx="353.802" cy="472.449" r="13.976"/>
	<circle cx="382.302" cy="436.491" r="12.761"/>
	<circle cx="413.711" cy="403.044" r="12.862"/>
	<circle cx="447.809" cy="372.342" r="12.761"/>
	<circle cx="484.356" cy="344.601" r="12.356"/>
	<circle cx="523.096" cy="320.016" r="13.47"/>
	<circle cx="563.758" cy="298.759" r="12.66"/>
	<circle cx="606.055" cy="280.978" r="13.571"/>
	<circle cx="649.693" cy="266.8" r="13.065"/>
	<circle cx="694.363" cy="256.322" r="13.47"/>
	<circle cx="739.754" cy="249.62" r="13.875"/>
	<circle cx="785.546" cy="246.739" r="14.078"/>
	<circle cx="831.419" cy="247.699" r="14.179"/>
	<circle cx="877.051" cy="252.496" r="13.976"/>
	<circle cx="922.121" cy="261.093" r="13.672"/>
	<circle cx="966.313" cy="273.432" r="13.267"/>
	<circle cx="1009.319" cy="289.425" r="13.976"/>
	<circle cx="1050.835" cy="308.961" r="13.065"/>
	<circle cx="1090.571" cy="331.903" r="13.976"/>
	<circle cx="1128.247" cy="358.089" r="14.584"/>
	<circle cx="1163.601" cy="387.336" r="14.888"/>
	<circle cx="1196.383" cy="419.438" r="13.47"/>
	<circle cx="1226.364" cy="454.171" r="14.989"/>
	<circle cx="1253.333" cy="491.292" r="14.685"/>
	<circle cx="1277.101" cy="530.538" r="14.28"/>
	<circle cx="1297.503" cy="571.636" r="16.204"/>
	<circle cx="1314.393" cy="614.297" r="15.192"/>
	<circle cx="1327.655" cy="658.221" r="15.901"/>
	<circle cx="1337.194" cy="703.102" r="14.381"/>
	<circle cx="1342.945" cy="748.623" r="14.787"/>
	<circle cx="1381.39" cy="794.465" r="13.065"/>
	<circle cx="1379.588" cy="840.315" r="13.065"/>
	<circle cx="1374.195" cy="885.881" r="12.862"/>
	<circle cx="1365.243" cy="930.884" r="14.584"/>
	<circle cx="1352.788" cy="975.046" r="13.571"/>
	<circle cx="1336.907" cy="1018.094" r="12.862"/>
	<circle cx="1317.697" cy="1059.764" r="13.976"/>
	<circle cx="1295.277" cy="1099.798" r="14.685"/>
	<circle cx="1269.785" cy="1137.95" r="13.571"/>
	<circle cx="1241.378" cy="1173.984" r="13.976"/>
	<circle cx="1210.232" cy="1207.678" r="14.179"/>
	<circle cx="1176.537" cy="1238.824" r="13.976"/>
	<circle cx="1140.504" cy="1267.231" r="13.571"/>
	<circle cx="1102.352" cy="1292.723" r="14.685"/>
	<circle cx="1062.318" cy="1315.143" r="13.976"/>
	<circle cx="1020.648" cy="1334.353" r="12.862"/>
	<circle cx="977.6" cy="1350.234" r="13.571"/>
	<circle cx="933.438" cy="1362.689" r="14.584"/>
	<circle cx="888.435" cy="1371.641" r="12.862"/>
	<circle cx="842.869" cy="1377.034" r="13.065"/>
	<circle cx="797.019" cy="1378.836" r="13.065"/>
	<circle cx="751.17" cy="1377.034" r="12.761"/>
	<circle cx="705.604" cy="1371.641" r="12.356"/>
	<circle cx="660.601" cy="1362.689" r="13.875"/>
	<circle cx="616.439" cy="1350.234" r="13.267"/>
	<circle cx="573.391" cy="1334.353" r="12.558"/>
	<circle cx="531.721" cy="1315.143" r="12.457"/>
	<circle cx="491.687" cy="1292.723" r="13.065"/>
	<circle cx="453.535" cy="1267.231" r="11.849"/>
	<circle cx="417.501" cy="1238.824" r="12.052"/>
	<circle cx="383.807" cy="1207.678" r="11.951"/>
	<circle cx="352.661" cy="1173.984" r="13.267"/>
	<circle cx="324.254" cy="1137.95" r="12.862"/>
	<circle cx="298.762" cy="1099.798" r="12.153"/>
	<circle cx="276.342" cy="1059.764" r="11.242"/>
	<circle cx="257.132" cy="1018.094" r="12.052"/>
	<circle cx="241.25" cy="975.046" r="12.66"/>
	<circle cx="228.795" cy="930.884" r="11.647"/>
	<circle cx="219.844" cy="885.881" r="11.951"/>
	<circle cx="214.451" cy="840.315" r="12.153"/>
	<circle cx="212.649" cy="794.465" r="12.153"/>
	<circle cx="214.451" cy="748.616" r="11.849"/>
	<circle cx="219.844" cy="703.05" r="11.546"/>
	<circle cx="228.795" cy="658.047" r="11.039"/>
	<circle cx="241.25" cy="613.885" r="12.457"/>
	<circle cx="257.132" cy="570.837" r="11.748"/>
	<circle cx="276.342" cy="529.167" r="9.925"/>
	<circle cx="298.762" cy="489.133" r="10.634"/>
	<circle cx="324.254" cy="450.981" r="11.141"/>
	<circle cx="352.661" cy="414.947" r="11.343"/>
	<circle cx="383.807" cy="381.253" r="10.026"/>
	<circle cx="417.501" cy="350.107" r="11.343"/>
	<circle cx="453.535" cy="321.7" r="11.141"/>
	<circle cx="491.687" cy="296.208" r="10.634"/>
	<circle cx="531.721" cy="273.788" r="9.925"/>
	<circle cx="573.391" cy="254.578" r="11.748"/>
	<circle cx="616.439" cy="238.696" r="12.457"/>
	<circle cx="660.601" cy="226.241" r="11.039"/>
	<circle cx="705.604" cy="217.29" r="11.546"/>
	<circle cx="751.17" cy="211.897" r="11.849"/>
	<circle cx="797.019" cy="210.095" r="12.153"/>
	<circle cx="842.869" cy="211.897" r="12.153"/>
	<circle cx="888.435" cy="217.29" r="11.951"/>
	<circle cx="933.438" cy="226.241" r="11.647"/>
	<circle cx="977.6" cy="238.696" r="12.66"/>
	<circle cx="1020.648" cy="254.578" r="12.052"/>
	<circle cx="1062.318" cy="273.788" r="11.242"/>
	<circle cx="1102.352" cy="296.208" r="12.153"/>
	<circle cx="1140.504" cy="321.7" r="12.862"/>
	<circle cx="1176.537" cy="350.107" r="13.267"/>
	<circle cx="1210.232" cy="381.253" r="11.951"/>
	<circle cx="1241.378" cy="414.947" r="12.052"/>
	<circle cx="1269.785" cy="450.981" r="11.849"/>
	<circle cx="1295.277" cy="489.133" r="13.065"/>
	<circle cx="1317.697" cy="529.167" r="12.457"/>
	<circle cx="1336.907" cy="570.837" r="12.558"/>
	<circle cx="1352.788" cy="613.885" r="13.267"/>
	<circle cx="1365.243" cy="658.047" r="13.875"/>
	<circle cx="1374.195" cy="703.05" r="12.356"/>
	<circle cx="1379.588" cy="748.616" r="12.761"/>
	<circle cx="1417.913" cy="794.465" r="11.039"/>
	<circle cx="1416.217" cy="840.32" r="10.938"/>
	<circle cx="1411.14" cy="885.924" r="10.837"/>
	<circle cx="1402.708" cy="931.029" r="12.558"/>
	<circle cx="1390.969" cy="975.387" r="11.647"/>
	<circle cx="1375.985" cy="1018.758" r="10.938"/>
	<circle cx="1357.84" cy="1060.904" r="12.052"/>
	<circle cx="1336.631" cy="1101.594" r="12.964"/>
	<circle cx="1312.475" cy="1140.607" r="11.951"/>
	<circle cx="1285.504" cy="1177.729" r="12.457"/>
	<circle cx="1255.865" cy="1212.759" r="12.66"/>
	<circle cx="1223.72" cy="1245.503" r="12.66"/>
	<circle cx="1189.245" cy="1275.784" r="12.457"/>
	<circle cx="1152.627" cy="1303.437" r="11.951"/>
	<circle cx="1114.067" cy="1328.309" r="12.964"/>
	<circle cx="1073.775" cy="1350.266" r="12.052"/>
	<circle cx="1031.972" cy="1369.188" r="12.862"/>
	<circle cx="988.886" cy="1384.97" r="11.647"/>
	<circle cx="944.752" cy="1397.527" r="12.153"/>
	<circle cx="899.811" cy="1406.791" r="12.558"/>
	<circle cx="854.308" cy="1412.71" r="10.938"/>
	<circle cx="808.493" cy="1415.253" r="11.039"/>
	<circle cx="762.615" cy="1414.405" r="10.938"/>
	<circle cx="716.925" cy="1410.171" r="10.735"/>
	<circle cx="671.672" cy="1402.574" r="11.951"/>
	<circle cx="627.104" cy="1391.657" r="11.343"/>
	<circle cx="583.464" cy="1377.477" r="10.634"/>
	<circle cx="540.99" cy="1360.113" r="11.647"/>
	<circle cx="499.915" cy="1339.66" r="10.735"/>
	<circle cx="460.462" cy="1316.229" r="11.444"/>
	<circle cx="422.848" cy="1289.949" r="10.533"/>
	<circle cx="387.277" cy="1260.962" r="12.052"/>
	<circle cx="353.944" cy="1229.428" r="10.634"/>
	<circle cx="323.031" cy="1195.518" r="10.432"/>
	<circle cx="294.706" cy="1159.417" r="10.026"/>
	<circle cx="269.125" cy="1121.324" r="9.419"/>
	<circle cx="246.428" cy="1081.445" r="10.432"/>
	<circle cx="226.737" cy="1039.998" r="10.128"/>
	<circle cx="210.161" cy="997.211" r="10.735"/>
	<circle cx="196.79" cy="953.317" r="9.318"/>
	<circle cx="186.698" cy="908.554" r="9.723"/>
	<circle cx="179.939" cy="863.169" r="9.925"/>
	<circle cx="176.55" cy="817.408" r="10.128"/>
	<circle cx="176.55" cy="771.523" r="10.026"/>
	<circle cx="179.939" cy="725.762" r="9.824"/>
	<circle cx="186.698" cy="680.377" r="9.52"/>
	<circle cx="196.79" cy="635.614" r="8.609"/>
	<circle cx="210.161" cy="591.72" r="9.824"/>
	<circle cx="226.737" cy="548.932" r="9.014"/>
	<circle cx="246.428" cy="507.486" r="9.925"/>
	<circle cx="269.125" cy="467.607" r="9.014"/>
	<circle cx="294.706" cy="429.514" r="9.52"/>
	<circle cx="323.031" cy="393.413" r="9.925"/>
	<circle cx="353.944" cy="359.503" r="10.026"/>
	<circle cx="387.277" cy="327.969" r="9.925"/>
	<circle cx="422.848" cy="298.982" r="8.305"/>
	<circle cx="460.462" cy="272.701" r="9.014"/>
	<circle cx="499.915" cy="249.271" r="9.925"/>
	<circle cx="540.99" cy="228.818" r="9.014"/>
	<circle cx="583.464" cy="211.454" r="9.824"/>
	<circle cx="627.104" cy="197.274" r="8.609"/>
	<circle cx="671.672" cy="186.356" r="9.115"/>
	<circle cx="716.925" cy="178.76" r="9.824"/>
	<circle cx="762.615" cy="174.526" r="10.026"/>
	<circle cx="808.493" cy="173.678" r="10.128"/>
	<circle cx="854.308" cy="176.221" r="10.128"/>
	<circle cx="899.811" cy="182.14" r="9.723"/>
	<circle cx="944.752" cy="191.404" r="9.318"/>
	<circle cx="988.886" cy="203.961" r="10.735"/>
	<circle cx="1031.972" cy="219.743" r="10.128"/>
	<circle cx="1073.775" cy="238.665" r="11.242"/>
	<circle cx="1114.067" cy="260.621" r="10.432"/>
	<circle cx="1152.627" cy="285.494" r="11.141"/>
	<circle cx="1189.245" cy="313.146" r="11.748"/>
	<circle cx="1223.72" cy="343.428" r="10.432"/>
	<circle cx="1255.865" cy="376.172" r="10.634"/>
	<circle cx="1285.504" cy="411.202" r="10.533"/>
	<circle cx="1312.475" cy="448.324" r="10.229"/>
	<circle cx="1336.631" cy="487.337" r="11.444"/>
	<circle cx="1357.84" cy="528.027" r="10.735"/>
	<circle cx="1375.985" cy="570.173" r="10.634"/>
	<circle cx="1390.969" cy="613.544" r="11.343"/>
	<circle cx="1402.708" cy="657.902" r="11.951"/>
	<circle cx="1411.14" cy="703.007" r="10.432"/>
	<circle cx="1416.217" cy="748.611" r="10.735"/>
	<circle cx="1454.436" cy="794.465" r="9.014"/>
	<circle cx="1452.834" cy="840.325" r="9.014"/>
	<circle cx="1448.038" cy="885.96" r="8.811"/>
	<circle cx="1440.07" cy="931.15" r="10.533"/>
	<circle cx="1428.969" cy="975.674" r="9.723"/>
	<circle cx="1414.789" cy="1019.315" r="9.115"/>
	<circle cx="1397.599" cy="1061.861" r="10.229"/>
	<circle cx="1377.484" cy="1103.104" r="9.419"/>
	<circle cx="1354.54" cy="1142.843" r="10.229"/>
	<circle cx="1328.88" cy="1180.885" r="10.837"/>
	<circle cx="1300.63" cy="1217.045" r="9.621"/>
	<circle cx="1269.925" cy="1251.145" r="9.824"/>
	<circle cx="1236.917" cy="1283.021" r="9.824"/>
	<circle cx="1201.765" cy="1312.517" r="9.621"/>
	<circle cx="1164.642" cy="1339.488" r="9.115"/>
	<circle cx="1125.728" cy="1363.805" r="10.229"/>
	<circle cx="1085.212" cy="1385.347" r="9.419"/>
	<circle cx="1043.292" cy="1404.011" r="10.938"/>
	<circle cx="1000.172" cy="1419.706" r="9.723"/>
	<circle cx="956.063" cy="1432.354" r="10.128"/>
	<circle cx="911.179" cy="1441.894" r="10.533"/>
	<circle cx="865.738" cy="1448.281" r="8.811"/>
	<circle cx="819.963" cy="1451.481" r="9.014"/>
	<circle cx="774.076" cy="1451.481" r="8.912"/>
	<circle cx="728.301" cy="1448.281" r="8.71"/>
	<circle cx="682.86" cy="1441.894" r="10.432"/>
	<circle cx="637.976" cy="1432.354" r="9.419"/>
	<circle cx="593.867" cy="1419.706" r="8.811"/>
	<circle cx="550.747" cy="1404.011" r="9.824"/>
	<circle cx="508.827" cy="1385.347" r="9.014"/>
	<circle cx="468.311" cy="1363.805" r="9.723"/>
	<circle cx="429.397" cy="1339.488" r="8.609"/>
	<circle cx="392.273" cy="1312.517" r="9.014"/>
	<circle cx="357.122" cy="1283.021" r="9.216"/>
	<circle cx="324.114" cy="1251.145" r="9.115"/>
	<circle cx="293.409" cy="1217.045" r="8.912"/>
	<circle cx="265.158" cy="1180.885" r="8.406"/>
	<circle cx="239.499" cy="1142.843" r="7.697"/>
	<circle cx="216.555" cy="1103.104" r="8.609"/>
	<circle cx="196.44" cy="1061.861" r="7.495"/>
	<circle cx="179.25" cy="1019.315" r="8.203"/>
	<circle cx="165.07" cy="975.674" r="6.887"/>
	<circle cx="153.969" cy="931.15" r="7.697"/>
	<circle cx="146.001" cy="885.96" r="7.9"/>
	<circle cx="141.204" cy="840.325" r="8.102"/>
	<circle cx="139.603" cy="794.465" r="8.102"/>
	<circle cx="141.204" cy="748.606" r="7.9"/>
	<circle cx="146.001" cy="702.971" r="7.596"/>
	<circle cx="153.969" cy="657.781" r="7.191"/>
	<circle cx="165.07" cy="613.257" r="6.684"/>
	<circle cx="179.25" cy="569.616" r="7.9"/>
	<circle cx="196.44" cy="527.07" r="6.38"/>
	<circle cx="216.555" cy="485.827" r="7.191"/>
	<circle cx="239.499" cy="446.088" r="6.178"/>
	<circle cx="265.158" cy="408.046" r="6.786"/>
	<circle cx="293.409" cy="371.886" r="7.089"/>
	<circle cx="324.114" cy="337.786" r="7.191"/>
	<circle cx="357.122" cy="305.91" r="7.089"/>
	<circle cx="392.273" cy="276.414" r="8.305"/>
	<circle cx="429.397" cy="249.443" r="7.9"/>
	<circle cx="468.311" cy="225.126" r="7.191"/>
	<circle cx="508.827" cy="203.583" r="8.203"/>
	<circle cx="550.747" cy="184.92" r="7.191"/>
	<circle cx="593.867" cy="169.225" r="7.9"/>
	<circle cx="637.976" cy="156.577" r="6.684"/>
	<circle cx="682.86" cy="147.037" r="7.596"/>
	<circle cx="728.301" cy="140.65" r="7.9"/>
	<circle cx="774.076" cy="137.449" r="8.001"/>
	<circle cx="819.963" cy="137.449" r="8.102"/>
	<circle cx="865.738" cy="140.65" r="7.9"/>
	<circle cx="911.179" cy="147.037" r="7.697"/>
	<circle cx="956.063" cy="156.577" r="7.393"/>
	<circle cx="1000.172" cy="169.225" r="8.811"/>
	<circle cx="1043.292" cy="184.92" r="8.203"/>
	<circle cx="1085.212" cy="203.583" r="8.609"/>
	<circle cx="1125.728" cy="225.126" r="7.697"/>
	<circle cx="1164.642" cy="249.443" r="8.406"/>
	<circle cx="1201.765" cy="276.414" r="8.912"/>
	<circle cx="1236.917" cy="305.91" r="7.596"/>
	<circle cx="1269.925" cy="337.786" r="7.798"/>
	<circle cx="1300.63" cy="371.886" r="7.697"/>
	<circle cx="1328.88" cy="408.046" r="9.014"/>
	<circle cx="1354.54" cy="446.088" r="8.609"/>
	<circle cx="1377.484" cy="485.827" r="8.001"/>
	<circle cx="1397.599" cy="527.07" r="9.014"/>
	<circle cx="1414.789" cy="569.616" r="8.811"/>
	<circle cx="1428.969" cy="613.257" r="9.419"/>
	<circle cx="1440.07" cy="657.781" r="9.925"/>
	<circle cx="1448.038" cy="702.971" r="8.406"/>
	<circle cx="1452.834" cy="748.606" r="8.71"/>
	<circle cx="1490.959" cy="794.465" r="6.988"/>
	<circle cx="1489.442" cy="840.328" r="6.988"/>
	<circle cx="1484.897" cy="885.991" r="6.887"/>
	<circle cx="1477.344" cy="931.253" r="8.609"/>
	<circle cx="1466.816" cy="975.917" r="7.798"/>
	<circle cx="1453.359" cy="1019.787" r="7.191"/>
	<circle cx="1437.033" cy="1062.672" r="8.406"/>
	<circle cx="1417.907" cy="1104.385" r="7.596"/>
	<circle cx="1396.067" cy="1144.742" r="8.507"/>
	<circle cx="1371.608" cy="1183.568" r="9.115"/>
	<circle cx="1344.635" cy="1220.692" r="8.001"/>
	<circle cx="1315.268" cy="1255.952" r="8.305"/>
	<circle cx="1283.635" cy="1289.195" r="8.406"/>
	<circle cx="1249.875" cy="1320.274" r="8.305"/>
	<circle cx="1214.133" cy="1349.054" r="8.001"/>
	<circle cx="1176.568" cy="1375.408" r="7.495"/>
	<circle cx="1137.344" cy="1399.223" r="8.507"/>
	<circle cx="1096.631" cy="1420.393" r="7.596"/>
	<circle cx="1054.608" cy="1438.826" r="8.406"/>
	<circle cx="1011.459" cy="1454.441" r="7.191"/>
	<circle cx="967.372" cy="1467.171" r="8.203"/>
	<circle cx="922.54" cy="1476.958" r="8.609"/>
	<circle cx="877.159" cy="1483.762" r="6.887"/>
	<circle cx="831.428" cy="1487.552" r="6.988"/>
	<circle cx="785.546" cy="1488.31" r="6.887"/>
	<circle cx="739.714" cy="1486.035" r="6.786"/>
	<circle cx="694.133" cy="1480.735" r="6.482"/>
	<circle cx="649.002" cy="1472.435" r="8.001"/>
	<circle cx="604.519" cy="1461.17" r="6.887"/>
	<circle cx="560.877" cy="1446.99" r="6.178"/>
	<circle cx="518.267" cy="1429.957" r="7.191"/>
	<circle cx="476.877" cy="1410.145" r="6.279"/>
	<circle cx="436.886" cy="1387.64" r="6.988"/>
	<circle cx="398.47" cy="1362.542" r="7.495"/>
	<circle cx="361.797" cy="1334.959" r="6.178"/>
	<circle cx="327.027" cy="1305.013" r="6.38"/>
	<circle cx="294.312" cy="1272.835" r="6.279"/>
	<circle cx="263.795" cy="1238.565" r="6.077"/>
	<circle cx="235.611" cy="1202.353" r="5.57"/>
	<circle cx="209.88" cy="1164.357" r="6.684"/>
	<circle cx="186.718" cy="1124.744" r="5.874"/>
	<circle cx="166.224" cy="1083.687" r="4.963"/>
	<circle cx="148.488" cy="1041.365" r="6.279"/>
	<circle cx="133.588" cy="997.963" r="6.887"/>
	<circle cx="121.59" cy="953.672" r="5.368"/>
	<circle cx="112.544" cy="908.684" r="5.672"/>
	<circle cx="106.492" cy="863.197" r="5.975"/>
	<circle cx="103.459" cy="817.409" r="6.077"/>
	<circle cx="103.459" cy="771.521" r="6.077"/>
	<circle cx="106.492" cy="725.734" r="5.874"/>
	<circle cx="112.544" cy="680.247" r="5.57"/>
	<circle cx="121.59" cy="635.259" r="4.659"/>
	<circle cx="133.588" cy="590.968" r="6.077"/>
	<circle cx="148.488" cy="547.566" r="5.368"/>
	<circle cx="166.224" cy="505.244" r="4.557"/>
	<circle cx="186.718" cy="464.187" r="5.469"/>
	<circle cx="209.88" cy="424.574" r="6.178"/>
	<circle cx="235.611" cy="386.578" r="5.064"/>
	<circle cx="263.795" cy="350.366" r="5.469"/>
	<circle cx="294.312" cy="316.096" r="5.773"/>
	<circle cx="327.027" cy="283.918" r="5.773"/>
	<circle cx="361.797" cy="253.972" r="5.469"/>
	<circle cx="398.47" cy="226.389" r="5.064"/>
	<circle cx="436.886" cy="201.291" r="4.456"/>
	<circle cx="476.877" cy="178.786" r="5.469"/>
	<circle cx="518.267" cy="158.974" r="4.557"/>
	<circle cx="560.877" cy="141.941" r="5.368"/>
	<circle cx="604.519" cy="127.76" r="4.152"/>
	<circle cx="649.002" cy="116.496" r="5.165"/>
	<circle cx="694.133" cy="108.195" r="5.57"/>
	<circle cx="739.714" cy="102.896" r="5.874"/>
	<circle cx="785.546" cy="100.621" r="6.077"/>
	<circle cx="831.428" cy="101.379" r="6.077"/>
	<circle cx="877.159" cy="105.169" r="5.975"/>
	<circle cx="922.54" cy="111.972" r="5.672"/>
	<circle cx="967.372" cy="121.76" r="5.368"/>
	<circle cx="1011.459" cy="134.49" r="6.279"/>
	<circle cx="1054.608" cy="150.105" r="5.672"/>
	<circle cx="1096.631" cy="168.538" r="6.786"/>
	<circle cx="1137.344" cy="189.708" r="5.874"/>
	<circle cx="1176.568" cy="213.523" r="6.684"/>
	<circle cx="1214.133" cy="239.877" r="7.292"/>
	<circle cx="1249.875" cy="268.657" r="6.077"/>
	<circle cx="1283.635" cy="299.736" r="6.279"/>
	<circle cx="1315.268" cy="332.979" r="6.38"/>
	<circle cx="1344.635" cy="368.239" r="6.178"/>
	<circle cx="1371.608" cy="405.363" r="7.495"/>
	<circle cx="1396.067" cy="444.189" r="6.988"/>
	<circle cx="1417.907" cy="484.546" r="6.279"/>
	<circle cx="1437.033" cy="526.258" r="7.191"/>
	<circle cx="1453.359" cy="569.144" r="6.887"/>
	<circle cx="1466.816" cy="613.014" r="7.495"/>
	<circle cx="1477.344" cy="657.678" r="8.001"/>
	<circle cx="1484.897" cy="702.94" r="6.482"/>
	<circle cx="1489.442" cy="748.603" r="6.786"/>
	<circle cx="1527.482" cy="794.465" r="4.963"/>
	<circle cx="1526.041" cy="840.332" r="4.963"/>
	<circle cx="1521.722" cy="886.017" r="4.861"/>
	<circle cx="1514.544" cy="931.341" r="6.583"/>
	<circle cx="1504.533" cy="976.124" r="5.773"/>
	<circle cx="1491.731" cy="1020.191" r="5.266"/>
	<circle cx="1476.187" cy="1063.367" r="6.482"/>
	<circle cx="1457.962" cy="1105.481" r="5.773"/>
	<circle cx="1437.129" cy="1146.369" r="6.684"/>
	<circle cx="1413.77" cy="1185.867" r="5.773"/>
	<circle cx="1387.976" cy="1223.821" r="6.38"/>
	<circle cx="1359.851" cy="1260.08" r="6.786"/>
	<circle cx="1329.504" cy="1294.502" r="6.988"/>
	<circle cx="1297.056" cy="1326.95" r="6.988"/>
	<circle cx="1262.634" cy="1357.297" r="6.786"/>
	<circle cx="1226.375" cy="1385.422" r="6.38"/>
	<circle cx="1188.421" cy="1411.216" r="5.773"/>
	<circle cx="1148.922" cy="1434.575" r="6.684"/>
	<circle cx="1108.035" cy="1455.408" r="5.773"/>
	<circle cx="1065.921" cy="1473.632" r="6.482"/>
	<circle cx="1022.745" cy="1489.177" r="5.266"/>
	<circle cx="978.678" cy="1501.979" r="5.773"/>
	<circle cx="933.894" cy="1511.99" r="6.583"/>
	<circle cx="888.571" cy="1519.168" r="4.861"/>
	<circle cx="842.886" cy="1523.487" r="4.963"/>
	<circle cx="797.019" cy="1524.928" r="4.963"/>
	<circle cx="751.153" cy="1523.487" r="4.76"/>
	<circle cx="705.468" cy="1519.168" r="4.456"/>
	<circle cx="660.144" cy="1511.99" r="6.077"/>
	<circle cx="615.361" cy="1501.979" r="5.57"/>
	<circle cx="571.294" cy="1489.177" r="4.963"/>
	<circle cx="528.118" cy="1473.632" r="5.368"/>
	<circle cx="486.004" cy="1455.408" r="4.456"/>
	<circle cx="445.116" cy="1434.575" r="5.266"/>
	<circle cx="405.618" cy="1411.216" r="4.152"/>
	<circle cx="367.664" cy="1385.422" r="4.659"/>
	<circle cx="331.405" cy="1357.297" r="4.861"/>
	<circle cx="296.983" cy="1326.95" r="4.963"/>
	<circle cx="264.535" cy="1294.502" r="4.76"/>
	<circle cx="234.188" cy="1260.08" r="4.456"/>
	<circle cx="206.063" cy="1223.821" r="5.57"/>
	<circle cx="180.269" cy="1185.867" r="4.963"/>
	<circle cx="156.91" cy="1146.369" r="4.051"/>
	<circle cx="136.077" cy="1105.481" r="4.963"/>
	<circle cx="117.852" cy="1063.367" r="3.747"/>
	<circle cx="102.308" cy="1020.191" r="4.355"/>
	<circle cx="89.506" cy="976.124" r="2.937"/>
	<circle cx="79.495" cy="931.341" r="3.747"/>
	<circle cx="72.317" cy="886.017" r="3.95"/>
	<circle cx="67.998" cy="840.332" r="4.051"/>
	<circle cx="66.557" cy="794.465" r="4.051"/>
	<circle cx="67.998" cy="748.599" r="3.849"/>
	<circle cx="72.317" cy="702.914" r="3.545"/>
	<circle cx="79.495" cy="657.59" r="3.241"/>
	<circle cx="89.506" cy="612.807" r="2.734"/>
	<circle cx="102.308" cy="568.74" r="4.152"/>
	<circle cx="117.852" cy="525.564" r="2.633"/>
	<circle cx="136.077" cy="483.45" r="3.646"/>
	<circle cx="156.91" cy="442.562" r="2.734"/>
	<circle cx="180.269" cy="403.064" r="3.443"/>
	<circle cx="206.063" cy="365.11" r="3.95"/>
	<circle cx="234.188" cy="328.851" r="2.633"/>
	<circle cx="264.535" cy="294.429" r="2.836"/>
	<circle cx="296.983" cy="261.981" r="2.836"/>
	<circle cx="331.405" cy="231.634" r="2.633"/>
	<circle cx="367.664" cy="203.509" r="3.95"/>
	<circle cx="405.618" cy="177.715" r="3.443"/>
	<circle cx="445.116" cy="154.356" r="2.734"/>
	<circle cx="486.004" cy="133.523" r="3.646"/>
	<circle cx="528.118" cy="115.298" r="2.633"/>
	<circle cx="571.294" cy="99.754" r="4.152"/>
	<circle cx="615.361" cy="86.952" r="2.734"/>
	<circle cx="660.144" cy="76.941" r="3.241"/>
	<circle cx="705.468" cy="69.763" r="3.545"/>
	<circle cx="751.153" cy="65.444" r="3.849"/>
	<circle cx="797.019" cy="64.003" r="4.051"/>
	<circle cx="842.886" cy="65.444" r="4.051"/>
	<circle cx="888.571" cy="69.763" r="3.95"/>
	<circle cx="933.894" cy="76.941" r="3.747"/>
	<circle cx="978.678" cy="86.952" r="2.937"/>
	<circle cx="1022.745" cy="99.754" r="4.355"/>
	<circle cx="1065.921" cy="115.298" r="3.747"/>
	<circle cx="1108.035" cy="133.523" r="4.963"/>
	<circle cx="1148.922" cy="154.356" r="4.051"/>
	<circle cx="1188.421" cy="177.715" r="4.963"/>
	<circle cx="1226.375" cy="203.509" r="5.57"/>
	<circle cx="1262.634" cy="231.634" r="4.456"/>
	<circle cx="1297.056" cy="261.981" r="4.76"/>
	<circle cx="1329.504" cy="294.429" r="4.963"/>
	<circle cx="1359.851" cy="328.851" r="4.861"/>
	<circle cx="1387.976" cy="365.11" r="4.659"/>
	<circle cx="1413.77" cy="403.064" r="4.152"/>
	<circle cx="1437.129" cy="442.562" r="5.266"/>
	<circle cx="1457.962" cy="483.45" r="4.456"/>
	<circle cx="1476.187" cy="525.564" r="5.368"/>
	<circle cx="1491.731" cy="568.74" r="4.963"/>
	<circle cx="1504.533" cy="612.807" r="5.57"/>
	<circle cx="1514.544" cy="657.59" r="6.077"/>
	<circle cx="1521.722" cy="702.914" r="4.456"/>
	<circle cx="1526.041" cy="748.599" r="4.76"/>
	<circle cx="1564.005" cy="794.465" r="2.937"/>
	<circle cx="1562.632" cy="840.334" r="2.937"/>
	<circle cx="1558.519" cy="886.039" r="2.836"/>
	<circle cx="1551.679" cy="931.416" r="4.557"/>
	<circle cx="1542.139" cy="976.303" r="3.849"/>
	<circle cx="1529.93" cy="1020.539" r="3.342"/>
	<circle cx="1515.098" cy="1063.965" r="4.659"/>
	<circle cx="1497.696" cy="1106.427" r="3.849"/>
	<circle cx="1477.785" cy="1147.772" r="4.861"/>
	<circle cx="1455.438" cy="1187.852" r="3.95"/>
	<circle cx="1430.733" cy="1226.524" r="3.545"/>
	<circle cx="1403.76" cy="1263.649" r="3.95"/>
	<circle cx="1374.615" cy="1299.095" r="2.633"/>
	<circle cx="1343.402" cy="1332.734" r="4.152"/>
	<circle cx="1310.233" cy="1364.447" r="4.152"/>
	<circle cx="1275.227" cy="1394.119" r="3.95"/>
	<circle cx="1238.51" cy="1421.645" r="3.545"/>
	<circle cx="1200.211" cy="1446.925" r="2.937"/>
	<circle cx="1160.47" cy="1469.87" r="3.95"/>
	<circle cx="1119.427" cy="1490.397" r="3.038"/>
	<circle cx="1077.231" cy="1508.432" r="4.659"/>
	<circle cx="1034.031" cy="1523.912" r="3.342"/>
	<circle cx="989.983" cy="1536.781" r="3.849"/>
	<circle cx="945.244" cy="1546.992" r="4.254"/>
	<circle cx="899.974" cy="1554.51" r="2.532"/>
	<circle cx="854.336" cy="1559.307" r="2.937"/>
	<circle cx="808.493" cy="1561.365" r="2.937"/>
	<circle cx="762.609" cy="1560.679" r="2.836"/>
	<circle cx="716.848" cy="1557.25" r="2.734"/>
	<circle cx="671.373" cy="1551.09" r="4.051"/>
	<circle cx="626.349" cy="1542.221" r="3.646"/>
	<circle cx="581.936" cy="1530.676" r="3.038"/>
	<circle cx="538.292" cy="1516.496" r="4.254"/>
	<circle cx="495.575" cy="1499.73" r="2.633"/>
	<circle cx="453.937" cy="1480.44" r="1.722"/>
	<circle cx="413.526" cy="1458.695" r="2.431"/>
	<circle cx="374.489" cy="1434.571" r="3.038"/>
	<circle cx="336.965" cy="1408.157" r="1.722"/>
	<circle cx="301.087" cy="1379.545" r="2.026"/>
	<circle cx="266.984" cy="1348.839" r="2.026"/>
	<circle cx="234.779" cy="1316.148" r="1.924"/>
	<circle cx="204.587" cy="1281.59" r="3.241"/>
	<circle cx="176.515" cy="1245.288" r="2.734"/>
	<circle cx="150.664" cy="1207.373" r="2.127"/>
	<circle cx="127.128" cy="1167.979" r="1.317"/>
	<circle cx="105.989" cy="1127.248" r="2.228"/>
	<circle cx="87.324" cy="1085.326" r="1.114"/>
	<circle cx="71.2" cy="1042.363" r="1.823"/>
	<circle cx="57.674" cy="998.512" r="0.911"/>
	<circle cx="46.794" cy="953.931" r="1.317"/>
	<circle cx="38.6" cy="908.779" r="1.722"/>
	<circle cx="33.121" cy="863.218" r="1.924"/>
	<circle cx="30.377" cy="817.41" r="2.026"/>
	<circle cx="30.377" cy="771.521" r="1.924"/>
	<circle cx="33.121" cy="725.713" r="1.823"/>
	<circle cx="38.6" cy="680.152" r="1.519"/>
	<circle cx="46.794" cy="635" r="0.709"/>
	<circle cx="57.674" cy="590.419" r="0.203"/>
	<circle cx="71.2" cy="546.568" r="1.519"/>
	<circle cx="87.324" cy="503.605" r="0.81"/>
	<circle cx="105.989" cy="461.683" r="1.823"/>
	<circle cx="150.664" cy="381.558" r="0.608"/>
	<circle cx="176.515" cy="343.642" r="1.013"/>
	<circle cx="204.587" cy="307.341" r="1.317"/>
	<circle cx="266.984" cy="240.092" r="1.418"/>
	<circle cx="301.087" cy="209.386" r="1.317"/>
	<circle cx="336.965" cy="180.774" r="1.013"/>
	<circle cx="374.489" cy="154.36" r="0.608"/>
	<circle cx="413.526" cy="130.236" r="1.722"/>
	<circle cx="453.937" cy="108.491" r="0.911"/>
	<circle cx="538.292" cy="72.435" r="1.519"/>
	<circle cx="581.936" cy="58.255" r="2.127"/>
	<circle cx="626.349" cy="46.71" r="0.709"/>
	<circle cx="671.373" cy="37.841" r="1.215"/>
	<circle cx="716.848" cy="31.681" r="1.823"/>
	<circle cx="762.609" cy="28.252" r="1.924"/>
	<circle cx="808.493" cy="27.565" r="2.026"/>
	<circle cx="854.336" cy="29.624" r="2.026"/>
	<circle cx="899.974" cy="34.421" r="1.722"/>
	<circle cx="945.244" cy="41.939" r="1.317"/>
	<circle cx="989.983" cy="52.15" r="0.911"/>
	<circle cx="1034.031" cy="65.019" r="2.431"/>
	<circle cx="1077.231" cy="80.498" r="1.823"/>
	<circle cx="1119.427" cy="98.534" r="2.228"/>
	<circle cx="1160.47" cy="119.061" r="1.317"/>
	<circle cx="1200.211" cy="142.006" r="2.127"/>
	<circle cx="1238.51" cy="167.286" r="2.734"/>
	<circle cx="1275.227" cy="194.812" r="1.62"/>
	<circle cx="1310.233" cy="224.484" r="1.924"/>
	<circle cx="1343.402" cy="256.196" r="2.026"/>
	<circle cx="1374.615" cy="289.836" r="2.026"/>
	<circle cx="1403.76" cy="325.282" r="3.342"/>
	<circle cx="1430.733" cy="362.407" r="3.038"/>
	<circle cx="1455.438" cy="401.079" r="2.431"/>
	<circle cx="1477.785" cy="441.159" r="3.545"/>
	<circle cx="1497.696" cy="482.504" r="2.633"/>
	<circle cx="1515.098" cy="524.966" r="3.545"/>
	<circle cx="1529.93" cy="568.392" r="3.038"/>
	<circle cx="1542.139" cy="612.628" r="3.646"/>
	<circle cx="1551.679" cy="657.515" r="4.051"/>
	<circle cx="1558.519" cy="702.892" r="2.431"/>
	<circle cx="1562.632" cy="748.596" r="2.734"/>
	<circle cx="1600.528" cy="794.465" r="0.911"/>
	<circle cx="1599.218" cy="840.337" r="0.911"/>
	<circle cx="1595.291" cy="886.059" r="0.81"/>
	<circle cx="1588.76" cy="931.482" r="2.532"/>
	<circle cx="1579.647" cy="976.458" r="1.823"/>
	<circle cx="1567.981" cy="1020.84" r="1.317"/>
	<circle cx="1553.8" cy="1064.484" r="2.633"/>
	<circle cx="1537.151" cy="1107.247" r="2.026"/>
	<circle cx="1518.087" cy="1148.991" r="3.038"/>
	<circle cx="1496.672" cy="1189.577" r="1.114"/>
	<circle cx="1472.974" cy="1228.875" r="1.823"/>
	<circle cx="1447.072" cy="1266.756" r="0.709"/>
	<circle cx="1419.049" cy="1303.097" r="1.013"/>
	<circle cx="1388.998" cy="1337.778" r="1.215"/>
	<circle cx="1357.015" cy="1370.687" r="2.734"/>
	<circle cx="1323.206" cy="1401.717" r="2.633"/>
	<circle cx="1287.68" cy="1430.766" r="2.329"/>
	<circle cx="1250.555" cy="1457.74" r="1.823"/>
	<circle cx="1211.949" cy="1482.55" r="1.114"/>
	<circle cx="1171.991" cy="1505.115" r="2.127"/>
	<circle cx="1130.809" cy="1525.363" r="1.215"/>
	<circle cx="1088.539" cy="1543.227" r="2.026"/>
	<circle cx="1045.317" cy="1558.648" r="0.709"/>
	<circle cx="1001.286" cy="1571.577" r="1.823"/>
	<circle cx="956.589" cy="1581.971" r="2.228"/>
	<circle cx="911.371" cy="1589.796" r="2.532"/>
	<circle cx="865.78" cy="1595.027" r="0.81"/>
	<circle cx="819.964" cy="1597.647" r="0.911"/>
	<circle cx="774.074" cy="1597.647" r="0.81"/>
	<circle cx="728.259" cy="1595.027" r="0.709"/>
	<circle cx="682.668" cy="1589.796" r="2.431"/>
	<circle cx="637.45" cy="1581.971" r="1.62"/>
	<circle cx="592.753" cy="1571.577" r="1.114"/>
	<circle cx="548.721" cy="1558.648" r="0.405"/>
	<circle cx="505.5" cy="1543.227" r="1.62"/>
	<circle cx="463.23" cy="1525.363" r="0.81"/>
	<circle cx="422.048" cy="1505.115" r="0.709"/>
	<circle cx="343.484" cy="1457.74" r="0.101"/>
	<circle cx="306.358" cy="1430.766" r="0.506"/>
	<circle cx="270.833" cy="1401.717" r="0.608"/>
	<circle cx="237.024" cy="1370.687" r="0.608"/>
	<circle cx="205.041" cy="1337.778" r="0.608"/>
	<circle cx="174.99" cy="1303.097" r="0.304"/>
	<circle cx="97.367" cy="1189.577" r="0.405"/>
	<circle cx="75.952" cy="1148.991" r="0.405"/>
	<circle cx="26.058" cy="1020.84" r="0.506"/>
	<circle cx="26.058" cy="568.091" r="0.203"/>
	<circle cx="1130.809" cy="63.568" r="0.405"/>
	<circle cx="1211.949" cy="106.381" r="0.405"/>
	<circle cx="1250.555" cy="131.191" r="1.114"/>
	<circle cx="1323.206" cy="187.214" r="0.304"/>
	<circle cx="1357.015" cy="218.244" r="0.608"/>
	<circle cx="1388.998" cy="251.153" r="0.608"/>
	<circle cx="1419.049" cy="285.834" r="0.506"/>
	<circle cx="1447.072" cy="322.175" r="0.101"/>
	<circle cx="1472.974" cy="360.056" r="1.317"/>
	<circle cx="1496.672" cy="399.354" r="0.709"/>
	<circle cx="1518.087" cy="439.94" r="1.722"/>
	<circle cx="1537.151" cy="481.683" r="0.81"/>
	<circle cx="1553.8" cy="524.447" r="1.62"/>
	<circle cx="1567.981" cy="568.091" r="1.114"/>
	<circle cx="1579.647" cy="612.473" r="1.62"/>
	<circle cx="1588.76" cy="657.449" r="2.127"/>
	<circle cx="1595.291" cy="702.872" r="0.405"/>
	<circle cx="1599.218" cy="748.594" r="0.709"/>
	<circle cx="1625.792" cy="931.539" r="0.506"/>
	<circle cx="1592.317" cy="1064.938" r="0.709"/>
	<circle cx="1576.36" cy="1107.965" r="0.101"/>
	<circle cx="1514.759" cy="1230.933" r="0.101"/>
	<circle cx="1336.004" cy="1438.786" r="1.013"/>
	<circle cx="1300.014" cy="1467.258" r="0.709"/>
	<circle cx="1262.523" cy="1493.722" r="0.101"/>
	<circle cx="1183.489" cy="1540.318" r="0.304"/>
	<circle cx="1099.845" cy="1578.016" r="0.101"/>
	<circle cx="967.929" cy="1616.927" r="0.203"/>
	<circle cx="922.76" cy="1625.033" r="0.506"/>
	<circle cx="648.639" cy="1621.289" r="0.101"/>
	<circle cx="1625.792" cy="657.392" r="0.101"/>
</g>
</svg>
